<?xml version="1.0" encoding="utf-8"?>
<!-- Generator: Adobe Illustrator 22.0.1, SVG Export Plug-In . SVG Version: 6.00 Build 0)  -->
<svg version="1.1" id="Camada_1" xmlns="http://www.w3.org/2000/svg" xmlns:xlink="http://www.w3.org/1999/xlink" x="0px" y="0px"
	 viewBox="0 0 1080 542.1" style="enable-background:new 0 0 1080 542.1;" xml:space="preserve">
<style type="text/css">
	.st0{clip-path:url(#SVGID_2_);}
	.st1{fill:#21A2E4;}
	.st2{fill:#303030;}
</style>
<g>
	<g>
		<defs>
			<path id="SVGID_1_" d="M631.3,292.4H448.7c-20,0-36.4-16.4-36.4-36.4V73.4c0-20,16.4-36.4,36.4-36.4h182.6
				c20,0,36.4,16.4,36.4,36.4V256C667.7,276,651.3,292.4,631.3,292.4z"/>
		</defs>
		<clipPath id="SVGID_2_">
			<use xlink:href="#SVGID_1_"  style="overflow:visible;"/>
		</clipPath>
		<g class="st0">
			<path class="st1" d="M534.3,158.5c-9.6,11.4-14.2,25.9-13,40.8c0.9,10.2,4.5,20,10.5,28.2c0.9,1.2,1.9,2.5,2.9,3.6
				c11.7,13.5,29.3,20.6,47,19.1c12.4-1.1,23.8-6,32.9-14.4l25.7-27.5c-1.7-3.2-2.8-6.7-3.1-10.3c-1.2-14.5,9.5-27.2,24-28.5
				c2.1-0.2,4.2-0.1,6.3,0.2v-27.2c-9.9,2-18.9,6.6-26.4,13.5l-25.7,27.5c1.7,3.2,2.8,6.7,3.1,10.3c0.6,7-1.6,13.8-6.1,19.2
				c-4.5,5.4-10.9,8.7-17.9,9.3c-0.8,0.1-1.5,0.1-2.3,0.1c-13.5,0-25-10.4-26.2-24.1v0c-1.2-14.5,9.5-27.2,24-28.5
				c5-0.4,10,0.6,14.4,2.9l26.1-27.8c10.4-9.7,23.2-15.8,37.1-18V90.4c-10.8-9.7-24.6-14.8-39.2-14.4c-10.3,0.3-20.2,3.4-28.8,9
				c-1.3,0.8-2.6,1.8-3.8,2.7c-11.3,8.8-18.8,21.7-21,35.6c16-0.5,31.7,4.4,44.6,14l-9.2,12.4c-11-8.1-24.5-12-38-10.8
				C557.4,140.1,543.9,147.1,534.3,158.5z"/>
			<path class="st1" d="M600.6,188.9c-2.3-2.7-5.7-4-9.2-3.7c-6,0.5-10.4,5.8-9.9,11.8v0c0.5,6,5.8,10.5,11.8,9.9
				c2.9-0.2,5.5-1.6,7.4-3.8c1.9-2.2,2.8-5.1,2.5-8c-0.2-2-0.9-3.9-2.1-5.5C601,189.4,600.8,189.2,600.6,188.9z"/>
			<path class="st1" d="M664.6,206.7c1.1-0.1,2.1-0.3,3.1-0.7v-20.3c-1.3-0.5-2.6-0.8-4-0.8c-0.3,0-0.6,0-0.9,0
				c-2.9,0.2-5.5,1.6-7.4,3.8c-1.9,2.2-2.8,5.1-2.5,8c0.2,2,0.9,3.9,2.1,5.5c0.2,0.2,0.4,0.5,0.6,0.7
				C657.7,205.6,661.1,207,664.6,206.7z"/>
			<path class="st1" d="M636.5,254.7l9.2-12.4c6.6,4.9,14.1,8.2,22,9.8v-30.3c-0.6,0.1-1.2,0.2-1.8,0.2c-0.7,0.1-1.5,0.1-2.2,0.1
				c-4.3,0-8.4-1.1-12.1-3L625.5,247c-11.7,10.8-26.4,17.3-42.3,18.7c-2,0.2-4,0.3-6,0.3c-20.5,0-40.4-8.9-54-24.6
				c-1.3-1.5-2.6-3.1-3.7-4.7c-7.7-10.5-12.4-23-13.5-36c-1.6-19,4.3-37.5,16.5-52c9.7-11.5,22.4-19.4,36.6-23.1
				c1.8-19.6,11.6-37.9,27.3-50.1c1.6-1.2,3.2-2.4,4.8-3.5c10.9-7.1,23.6-11.1,36.7-11.5c14.1-0.4,27.8,3.3,39.5,10.5
				c-1.2-18.9-17-34-36.2-34H448.7c-20,0-36.4,16.4-36.4,36.4V256c0,20,16.4,36.4,36.4,36.4h182.6c16,0,29.6-10.5,34.5-24.9
				C655.3,265.5,645.3,261.1,636.5,254.7z"/>
		</g>
	</g>
	<g>
		<g>
			<g>
				<path class="st2" d="M63.8,372.1c13,0,24.8,3.5,35.5,10.6c10.6,7.1,18.5,16.5,23.6,28.4c3.5,8.1,5.2,15.1,5.2,21v72.3H91.7
					v-70.3c0-1.6-0.3-3.1-1-4.4c-1.6-6.1-4.9-11.1-9.8-15c-4.9-3.9-10.5-5.9-16.9-5.9c-6.3,0-11.8,1.9-16.6,5.7
					c-4.8,3.8-8.1,8.7-9.9,14.8c-0.3,1.2-0.5,1.8-0.6,1.9c-0.1,0.1-0.3,1.5-0.6,4.3v69H0v-71.1c0-1.8,0.2-4.2,0.7-7.2
					c2.5-15.3,9.8-28.1,21.9-38.5C34.7,377.3,48.5,372.1,63.8,372.1z"/>
				<path class="st2" d="M232.4,497.2c-9.9,4.8-19.9,7.2-29.9,7.2c-18.1,0-33.6-6.5-46.5-19.5c-12.9-13-19.3-28.6-19.3-46.8
					c0-18.4,6.5-34,19.4-46.8c12.9-12.8,28.6-19.2,46.9-19.2c13.7,0,26.2,4,37.7,12c11.5,8,19.5,18.4,24.1,31.3
					c2.6,7.4,4,13.6,4,18.5v70.5h-36.3V497.2z M173.1,438.1c0,8.1,2.9,15,8.8,20.9c5.8,5.9,12.8,8.8,20.9,8.8c8.1,0,15-2.9,20.9-8.8
					c5.8-5.8,8.8-12.8,8.8-20.9c0-7.9-2.9-14.8-8.7-20.6c-5.8-5.8-12.7-8.8-20.8-8.8c-8.1,0-15.1,2.8-21,8.5
					S173.1,429.9,173.1,438.1z"/>
				<path class="st2" d="M277.6,324.6H314v46.2h17.8v36.6H314v54.7c0,1.2,0.6,2.4,1.7,3.7c1.2,1.3,2.3,2,3.5,2H334v36.6h-17.3
					c-2.3,0-5.1-0.5-8.4-1.5c-15-4.5-24.7-14.3-29.2-29.4c-1-3.5-1.5-6.6-1.5-9.4V324.6z"/>
				<path class="st2" d="M352.1,371.4h36.3v133h-36.3V371.4z"/>
				<path class="st2" d="M352.1,325h36.3v34.7h-36.3V325z"/>
				<path class="st2" d="M408.7,372.4h39.1l29.7,75.7l29.7-75.7h38.8L495,503.6c-0.2,0.2-0.3,0.4-0.5,0.7c-0.2,0.3-0.3,0.5-0.5,0.5
					h-33.1c-0.2,0-0.3-0.1-0.4-0.4c-0.1-0.2-0.3-0.5-0.6-0.9L408.7,372.4z"/>
				<path class="st2" d="M584.2,454.1c1.4,2.4,3.1,4.7,5.3,6.8c6.6,6.5,14.5,9.7,23.8,9.5c2.3,0,4.6-0.3,6.9-0.7l7.3,32.5
					c-4.4,1-9,1.6-13.8,1.6c-18.5,0.2-34.3-6.2-47.4-19.1c-13.1-12.9-19.8-28.5-19.9-46.9c-0.2-18.4,6.2-34.1,19.1-47.3
					c12.9-13.1,28.5-19.8,46.9-19.9c18.4-0.2,34.1,6.2,47.3,19.1c13.1,12.9,19.8,28.5,20.1,46.9c0,5.8-0.7,11.4-1.9,16.8
					L584.2,454.1z M641.7,420.2c-1.5-2.4-3.4-4.7-5.6-6.8c-6.5-6.4-14.4-9.6-23.6-9.6c-9.2,0-17,3.4-23.5,10
					c-2.1,2.2-3.9,4.5-5.2,6.9L641.7,420.2z"/>
				<path class="st1" d="M843,454.1c1.4,2.4,3.1,4.7,5.3,6.8c6.6,6.5,14.5,9.7,23.8,9.5c2.3,0,4.6-0.3,6.9-0.7l7.3,32.5
					c-4.4,1-9,1.6-13.8,1.6c-18.5,0.2-34.3-6.2-47.4-19.1c-13.1-12.9-19.8-28.5-19.9-46.9c-0.2-18.4,6.2-34.1,19.1-47.3
					c12.9-13.1,28.5-19.8,46.9-19.9c18.4-0.2,34.1,6.2,47.3,19.1c13.1,12.9,19.8,28.5,20.1,46.9c0,5.8-0.7,11.4-1.9,16.8L843,454.1z
					 M900.5,420.2c-1.5-2.4-3.4-4.7-5.6-6.8c-6.5-6.4-14.4-9.6-23.6-9.6c-9.2,0-17,3.4-23.5,10c-2.1,2.2-3.9,4.5-5.2,6.9
					L900.5,420.2z"/>
				<path class="st1" d="M788.9,441.9c5.1,7.1,7.7,14.1,7.7,20.9c0,12.6-4.6,22.8-13.9,30.6c-9.3,7.8-22.1,11.7-38.5,11.7
					c-22.4,0-41.2-6.1-56.4-18.2l21.8-25.1c11.3,6.5,22.2,9.8,32.4,9.8c5.4,0,10.1-0.6,14-1.8c4-1.2,5.9-3.4,5.9-6.6
					c0-2.8-2.7-4.9-8.1-6.3l-28.5-7.1c-9.4-1.8-17.1-6.1-23.3-12.9c-6.2-6.8-9.3-15.3-9.3-25.6c0-10.3,4.8-19.6,14.3-27.9
					c9.6-8.2,21.3-12.3,35.1-12.3c21.6,0,39.8,5.4,54.6,16.1l-22,24.9c-9.4-5-18.6-7.5-27.7-7.5c-7.4,0-12.5,0.8-15.4,2.5
					c-2.9,1.7-4.4,3.6-4.4,5.9c0,2.7,1.6,4.5,4.9,5.6l30.7,7.3C775.1,429.4,783.7,434.8,788.9,441.9z"/>
				<path class="st1" d="M950.4,437.9c0-16,5.2-30.1,15.6-42.4c10.4-12.3,23.4-19.8,39.1-22.6c4-0.7,7.7-1,11.4-1
					c12,0.2,23.2,3.3,33.6,9.4c10.4,6.1,18.5,14.3,24.2,24.7c0.3,0.3,1.3,2.1,3,5.4c0-0.8,0.5,0.5,1.5,4c0.5,1.2,0.9,2.5,1.2,4v0.7
					h-39.6c-7.4-7.7-15.3-11.6-23.7-11.6c-8.4,0-15.5,2.9-21.1,8.6c-5.7,5.7-8.5,12.7-8.5,20.9c0,8,2.9,14.9,8.7,20.7
					c5.8,5.7,12.7,8.6,20.8,8.6c9.1,0,17.1-3.8,24-11.4h39.6v0.7c-0.5,1.5-1.2,3.5-2,5.9c-1.2,3.3-4,8.2-8.4,14.6
					c-1.5,2.1-4.7,5.7-9.6,10.6c-1,0.8-1.6,1.3-1.7,1.5c-12.9,9.7-26.8,14.6-41.8,14.6c-18.1,0-33.7-6.4-46.6-19.3
					C956.9,471.7,950.4,456.2,950.4,437.9z"/>
			</g>
		</g>
	</g>
</g>
</svg>
