<?xml version="1.0" encoding="utf-8"?>
<!-- Generator: Adobe Illustrator 22.0.1, SVG Export Plug-In . SVG Version: 6.00 Build 0)  -->
<svg version="1.1" id="Camada_1" xmlns="http://www.w3.org/2000/svg" xmlns:xlink="http://www.w3.org/1999/xlink" x="0px" y="0px"
	 viewBox="0 0 1024 1024" style="enable-background:new 0 0 1024 1024;" xml:space="preserve">
<style type="text/css">
	.st0{clip-path:url(#SVGID_2_);}
	.st1{fill:#21A2E4;}
</style>
<g>
	<defs>
		<path id="SVGID_1_" d="M877.5,1023h-731C66.5,1023,1,957.5,1,877.5v-731C1,66.5,66.5,1,146.5,1h731c80,0,145.5,65.5,145.5,145.5
			v731C1023,957.5,957.5,1023,877.5,1023z"/>
	</defs>
	<clipPath id="SVGID_2_">
		<use xlink:href="#SVGID_1_"  style="overflow:visible;"/>
	</clipPath>
	<g class="st0">
		<path class="st1" d="M489.3,487.4c-38.5,45.7-56.9,103.7-51.9,163.2c3.5,40.9,18.1,80,42.2,113c3.6,5,7.6,9.9,11.7,14.6
			c46.8,53.9,117.1,82.4,188.1,76.4c49.6-4.2,95.2-24.2,131.9-57.8l103-109.9c-6.9-12.7-11.1-26.8-12.4-41.3
			c-4.9-57.9,38.2-109,96.1-114c8.6-0.7,16.9-0.3,25.1,1V423.7c-39.4,8-75.6,26.3-105.7,53.8l-103,109.9
			c6.9,12.7,11.1,26.8,12.4,41.3c2.4,28-6.3,55.3-24.4,76.9c-18.1,21.5-43.6,34.7-71.6,37.1c-3,0.3-6,0.4-9,0.4
			c-54.1,0-100.3-41.6-104.9-96.4v0c-4.9-57.9,38.2-109,96.1-114c20-1.7,39.9,2.5,57.4,11.6l104.4-111.4
			c41.8-38.6,92.8-63.3,148.4-72.1V214.6c-43.1-38.9-98.5-59.3-156.7-57.7c-41.1,1.2-80.9,13.7-115.1,36c-5.2,3.4-10.3,7-15.2,10.8
			c-45.4,35.3-75.2,86.7-84,142.6c63.9-1.9,126.7,17.7,178.3,56l-36.8,49.6c-43.8-32.5-97.9-47.8-152.2-43.2
			C581.8,413.7,527.8,441.7,489.3,487.4z"/>
		<path class="st1" d="M754.7,609.1c-9.3-10.7-22.6-16.1-36.7-14.9c-24,2-41.8,23.2-39.8,47.2v0c2,24,23.2,41.9,47.2,39.8
			c11.6-1,22.1-6.4,29.7-15.4c7.5-8.9,11.1-20.2,10.1-31.8c-0.7-8-3.5-15.6-8.2-22C756.2,611,755.5,610,754.7,609.1z"/>
		<path class="st1" d="M1010.6,680.1c4.4-0.4,8.5-1.4,12.4-2.9v-81.1c-5-2-10.4-3.1-16.1-3.1c-1.2,0-2.5,0.1-3.7,0.2
			c-11.6,1-22.1,6.4-29.7,15.4c-7.5,8.9-11.1,20.2-10.1,31.8c0.7,8,3.5,15.6,8.2,22c0.7,1,1.5,1.9,2.3,2.9
			C983.2,675.9,996.5,681.3,1010.6,680.1z"/>
		<path class="st1" d="M898.2,872.1l36.8-49.6c26.4,19.5,56.4,32.8,88,39.3V740.7c-2.4,0.4-4.7,0.8-7.2,1c-3,0.3-5.9,0.4-8.9,0.4
			c-17,0-33.6-4.3-48.5-12L854,841.4c-47,43.4-105.5,69.2-169.3,74.7c-8,0.7-16,1-24,1c-82.2,0-161.6-35.8-216-98.5
			c-5.2-6-10.2-12.3-14.9-18.6c-30.8-42.1-49.4-91.9-53.9-144.2c-6.5-76,17-150,66.2-208.3c38.7-45.9,89.6-77.7,146.6-92.4
			c7.1-78.4,46.5-151.5,109.4-200.3c6.3-4.9,12.8-9.5,19.4-13.8c43.7-28.5,94.5-44.3,146.9-45.9c56.6-1.7,111.1,13,158.1,42.1
			C1017.7,61.5,954.4,1,877.5,1h-731C66.5,1,1,66.5,1,146.5v731c0,80,65.5,145.5,145.5,145.5h731c64,0,118.7-42,138-99.7
			C973.3,915.4,933.2,898,898.2,872.1z"/>
	</g>
</g>
</svg>
